<svg width="120" height="44" viewBox="0 0 120 44" fill="none" xmlns="http://www.w3.org/2000/svg">
<mask id="mask0_2078_80" style="mask-type:alpha" maskUnits="userSpaceOnUse" x="0" y="0" width="120" height="44">
<path fill-rule="evenodd" clip-rule="evenodd" d="M88.4419 0C88.6885 0 88.8883 0.19213 88.8946 0.431222V0.442529V18.5828C90.3412 11.5653 96.2755 6.27273 104.286 6.27273C113.398 6.27273 119.83 13.189 119.997 21.696L120 21.9543V36.3832C120 36.6238 119.803 36.8196 119.559 36.8255L119.547 36.8257H113.031C112.785 36.8257 112.585 36.6336 112.579 36.3945V36.3832V33.7024C110.261 36.1853 106.939 37.466 103.255 37.466C95.9414 37.466 89.8458 31.7683 88.7603 24.3327C87.6894 31.8207 81.594 37.5182 73.2617 37.5182C64.0053 37.5182 57.535 30.5661 57.535 21.9412C57.535 21.2775 57.572 20.6257 57.6458 19.986L57.6556 19.9026L52.4313 21.6667L35.6463 27.273C35.6463 27.2861 35.6597 27.2991 35.6731 27.3121C37.0662 29.403 39.2899 30.6968 41.9289 30.8798C44.4486 31.0479 47.0997 30.153 48.5822 27.9161L48.6269 27.848L56.9725 28.4099C54.7755 34.3558 49.0957 38.1063 41.5137 37.5967C35.9946 37.2307 31.3597 34.0814 28.8814 29.6121C28.1957 28.3644 27.6787 27.0279 27.3434 25.6153L27.3275 25.5479V30.6184C27.3275 38.6683 21.9155 44 13.7307 44C7.08656 44 1.61085 39.799 0.462189 33.7554L0.428678 33.5717H8.55992C9.02877 35.7802 11.0515 36.878 13.7174 36.878C17.9478 36.878 19.4475 33.9833 19.4771 31.2246L19.4775 31.1411V27.665C17.6289 29.1678 15.2579 30.0957 12.4715 30.0957C5.05817 30.0957 0.0999103 24.9341 0.0015611 17.2483L0 17.0146V6.97656C0 6.73594 0.19649 6.54015 0.441062 6.53424L0.452615 6.53403H7.384C7.63013 6.53403 7.83037 6.72606 7.8364 6.96525L7.83661 6.97656V17.0146C7.83661 18.7003 8.42598 22.869 13.5298 22.869C16.9911 22.869 19.4153 20.4228 19.4634 17.1151L19.4641 17.0146V6.97656C19.4641 6.73594 19.6606 6.54015 19.9053 6.53424L19.9167 6.53403H26.8481C27.0942 6.53403 27.2945 6.72606 27.3006 6.96525L27.3007 6.97656V18.635C28.9752 11.2254 35.8606 5.88063 43.6838 6.40333C50.8506 6.88692 56.584 11.5913 57.7092 19.3277C58.888 12.0095 64.9161 6.39029 72.0963 6.39029C75.6771 6.39029 78.6276 7.46616 80.9868 9.79545L81.0581 9.86645V0.442529C81.0581 0.201909 81.2546 0.00611229 81.4992 0.000203743L81.5107 0H88.4419ZM73.2206 13.4341C68.8804 13.4341 65.384 17.0801 65.384 22.0067C65.384 26.7635 68.8938 30.4094 73.2206 30.4094C77.5608 30.4094 81.0572 26.6458 81.0572 22.0067C81.0572 17.2499 77.5475 13.4341 73.2206 13.4341ZM104.286 13.4341C99.9463 13.4341 96.4504 17.0801 96.4504 22.0067C96.4504 26.7635 99.9598 30.4094 104.286 30.4094C108.613 30.4094 112.123 26.6458 112.123 22.0067C112.123 17.2499 108.613 13.4341 104.286 13.4341ZM34.2693 20.941L34.2522 21.0926L49.0009 16.1528C47.7016 14.3887 45.6385 13.2649 43.1469 13.095C38.691 12.7974 34.8652 15.958 34.2693 20.941Z" fill="white"/>
</mask>
<g mask="url(#mask0_2078_80)">
<path fill-rule="evenodd" clip-rule="evenodd" d="M-0.00512695 43.9983H120.002V-0.00415039H-0.00512695V43.9983Z" fill="white"/>
</g>
</svg>
